<svg width="55" height="49" viewBox="0 0 55 49" fill="none" xmlns="http://www.w3.org/2000/svg">
<path fill-rule="evenodd" clip-rule="evenodd" d="M27.5003 2.45C25.677 2.45 23.9283 2.96625 22.639 3.88518C21.3497 4.8041 20.6254 6.05044 20.6254 7.35C20.6254 8.64956 21.3497 9.8959 22.639 10.8148C23.9283 11.7338 25.677 12.25 27.5003 12.25C29.3237 12.25 31.0723 11.7338 32.3616 10.8148C33.6509 9.8959 34.3753 8.64956 34.3753 7.35C34.3753 6.05044 33.6509 4.8041 32.3616 3.88518C31.0723 2.96625 29.3237 2.45 27.5003 2.45ZM17.1879 7.35C17.1879 5.40066 18.2744 3.53116 20.2084 2.15277C22.1423 0.774373 24.7653 0 27.5003 0C30.2353 0 32.8583 0.774373 34.7923 2.15277C36.7262 3.53116 37.8127 5.40066 37.8127 7.35C37.8127 9.29934 36.7262 11.1688 34.7923 12.5472C32.8583 13.9256 30.2353 14.7 27.5003 14.7C24.7653 14.7 22.1423 13.9256 20.2084 12.5472C18.2744 11.1688 17.1879 9.29934 17.1879 7.35ZM12.5611 18.941C13.083 18.0479 13.9641 17.285 15.0933 16.7483C16.2225 16.2116 17.5494 15.9251 18.9067 15.925H36.094C37.4513 15.9251 38.7781 16.2116 39.9074 16.7483C41.0366 17.285 41.9177 18.0479 42.4395 18.941L46.7364 26.291C48.5118 29.3253 45.6742 32.6524 41.2502 33.0382V34.1677C41.2502 34.3755 41.3243 34.5798 41.4656 34.7615C41.6069 34.9433 41.8108 35.0964 42.058 35.2065L51.5935 39.4536C52.9281 40.0481 53.9549 40.936 54.5188 41.9833C55.0827 43.0305 55.153 44.1801 54.7191 45.2583C54.2853 46.3365 53.3708 47.2848 52.1139 47.9599C50.857 48.6349 49.3259 49 47.7521 49H7.24164C5.6675 49.0001 4.1362 48.6346 2.87963 47.9588C1.62307 47.2831 0.70969 46.3339 0.277832 45.255C-0.154026 44.1761 -0.0808428 43.0263 0.486299 41.9797C1.05344 40.9331 2.08365 40.0467 3.4209 39.4548L13.0252 35.204C13.2735 35.094 13.4783 34.9406 13.6203 34.7584C13.7622 34.5762 13.8366 34.3712 13.8364 34.1628V33.0444C9.36255 32.6953 6.47852 29.3449 8.26428 26.2897L12.5611 18.941ZM17.2739 33.075V34.1628C17.2738 34.7877 17.0501 35.4023 16.6239 35.9485C16.1978 36.4947 15.5832 36.9543 14.8384 37.2841L5.23588 41.5348C4.5327 41.8455 3.99079 42.311 3.69231 42.861C3.39382 43.4109 3.35503 44.0152 3.58181 44.5822C3.8086 45.1493 4.2886 45.6482 4.94904 46.0033C5.60948 46.3584 6.41435 46.5503 7.24164 46.55H37.8127C38.2686 46.55 38.7057 46.4209 39.028 46.1912C39.3504 45.9615 39.5314 45.6499 39.5314 45.325V45.1657C39.5311 44.8552 39.3653 44.5564 39.0677 44.3297C38.77 44.1029 38.3626 43.9652 37.9279 43.9444L15.44 42.8726C14.9851 42.8508 14.5609 42.7011 14.2608 42.4564C13.9607 42.2118 13.8093 41.8922 13.8398 41.5679C13.8704 41.2437 14.0804 40.9414 14.4237 40.7275C14.7669 40.5136 15.2154 40.4057 15.6703 40.4274L38.1565 41.4993C39.4618 41.5615 40.6851 41.9749 41.5787 42.6559C42.4722 43.337 42.9692 44.2346 42.9689 45.167V45.325C42.9689 45.7537 42.8658 46.1666 42.6767 46.55H47.7521C48.5795 46.55 49.3844 46.358 50.0452 46.0032C50.706 45.6483 51.1868 45.1497 51.4149 44.5829C51.643 44.016 51.606 43.4117 51.3095 42.8611C51.0131 42.3106 50.4733 41.8437 49.7716 41.5312L40.2361 37.2829C39.4945 36.9525 38.883 36.4932 38.4591 35.948C38.0351 35.4028 37.8127 34.7898 37.8127 34.1665V33.075H33.0742C32.1711 33.075 31.2769 32.9482 30.4426 32.7019C29.6083 32.4556 28.8503 32.0945 28.2119 31.6393L27.5003 31.1322L26.7888 31.6393C26.1503 32.0945 25.3923 32.4556 24.558 32.7019C23.7237 32.9482 22.8295 33.075 21.9265 33.075H17.2739ZM29.2191 28.8929L30.6422 29.9072C30.9615 30.1348 31.3406 30.3154 31.7579 30.4386C32.1752 30.5617 32.6225 30.6251 33.0742 30.625H40.3908C40.9569 30.625 41.5142 30.5254 42.0132 30.3351C42.5123 30.1447 42.9376 29.8694 43.2516 29.5337C43.5655 29.198 43.7582 28.8122 43.8126 28.4106C43.8671 28.009 43.7815 27.6041 43.5636 27.2318L39.2668 19.8818C39.0056 19.4355 38.5649 19.0543 38.0003 18.7861C37.4357 18.518 36.7724 18.375 36.094 18.375H18.9067C18.2282 18.375 17.5649 18.518 17.0003 18.7861C16.4357 19.0543 15.9951 19.4355 15.7339 19.8818L11.4371 27.2318C11.2191 27.6041 11.1336 28.009 11.188 28.4106C11.2425 28.8122 11.4352 29.198 11.7491 29.5337C12.063 29.8694 12.4884 30.1447 12.9874 30.3351C13.4865 30.5254 14.0438 30.625 14.6098 30.625H21.9265C22.3781 30.6251 22.8254 30.5617 23.2427 30.4386C23.66 30.3154 24.0392 30.1348 24.3585 29.9072L25.7816 28.8929V26.0509C25.3932 26.2101 25.0425 26.4282 24.7504 26.705L23.7191 27.685C23.559 27.8371 23.3514 27.9606 23.1128 28.0457C22.8741 28.1307 22.611 28.175 22.3441 28.175H17.1879C16.8951 28.1749 16.6071 28.1214 16.3514 28.0197C16.0956 27.918 15.8806 27.7714 15.7267 27.5939C15.5728 27.4163 15.485 27.2136 15.4719 27.0051C15.4587 26.7966 15.5205 26.5891 15.6514 26.4024L17.3701 23.9524C17.4667 23.8035 17.6042 23.6699 17.7745 23.5596C17.9449 23.4492 18.1446 23.3644 18.3618 23.3101C18.579 23.2559 18.8093 23.2332 19.039 23.2436C19.2687 23.254 19.4932 23.2971 19.6991 23.3705C19.9049 23.4438 20.088 23.5459 20.2375 23.6707C20.387 23.7955 20.4998 23.9403 20.5692 24.0968C20.6386 24.2532 20.6632 24.418 20.6415 24.5813C20.6199 24.7446 20.5525 24.9032 20.4432 25.0476L19.9688 25.725H21.4848L22.0004 25.235C24.7504 22.6221 30.2503 22.6221 33.0003 25.235L33.5159 25.725H35.0318L34.5574 25.0476C34.4482 24.9032 34.3807 24.7446 34.3591 24.5813C34.3375 24.418 34.3621 24.2532 34.4315 24.0968C34.5009 23.9403 34.6137 23.7955 34.7631 23.6707C34.9126 23.5459 35.0957 23.4438 35.3016 23.3705C35.5075 23.2971 35.7319 23.254 35.9616 23.2436C36.1914 23.2332 36.4217 23.2559 36.6389 23.3101C36.8561 23.3644 37.0558 23.4492 37.2261 23.5596C37.3965 23.6699 37.534 23.8035 37.6305 23.9524L39.3493 26.4024C39.4802 26.5891 39.542 26.7966 39.5288 27.0051C39.5156 27.2136 39.4279 27.4163 39.274 27.5939C39.12 27.7714 38.905 27.918 38.6493 28.0197C38.3935 28.1214 38.1056 28.1749 37.8127 28.175H32.6565C32.3897 28.175 32.1265 28.1307 31.8879 28.0457C31.6492 27.9606 31.4416 27.8371 31.2815 27.685L30.2503 26.705C29.9722 26.4395 29.6213 26.217 29.2191 26.0509V28.8929Z" fill="black"/>
</svg>
