<svg width="55" height="57" viewBox="0 0 55 57" fill="none" xmlns="http://www.w3.org/2000/svg">
<path fill-rule="evenodd" clip-rule="evenodd" d="M16.2694 6.4841L16.3535 6.11744C16.5139 5.43605 16.7767 4.43383 17.319 3.44688C17.8721 2.44161 18.7292 1.42258 20.0736 0.751886C21.4135 0.0842479 23.0925 -0.16478 25.1687 0.11022C27.4604 0.415775 32.0636 1.17355 36.1305 3.24216C40.2204 5.32299 44.0521 8.90257 44.0521 14.864C44.0521 17.9439 42.8604 21.2485 41.7054 23.4027C41.1508 24.4385 40.4923 25.4285 39.8323 25.9617C39.6811 26.0839 39.4657 26.2367 39.1983 26.3437C38.4649 28.7538 37.0051 30.8786 35.0183 32.4276C33.0315 33.9766 30.6148 34.8742 28.0985 34.9976C25.5823 35.1209 23.0893 34.4641 20.9605 33.117C18.8317 31.7698 17.1709 29.798 16.2053 27.4712L16.1686 27.4773L15.6262 26.8188L15.6247 26.8157L15.6217 26.8127L15.614 26.802L15.588 26.7714C15.4574 26.6086 15.3316 26.442 15.2107 26.2719C14.8815 25.8138 14.5707 25.3429 14.2787 24.8602C13.5607 23.6716 12.6944 21.9788 12.1399 20.0034C11.5868 18.028 11.3332 15.7119 11.9137 13.3224C12.479 10.9972 13.8128 8.70854 16.2282 6.66438L16.2694 6.4841ZM18.8361 25.7921C19.4987 27.6976 20.7711 29.3315 22.4563 30.4407C24.1414 31.5498 26.1453 32.0724 28.1575 31.9274C30.1697 31.7825 32.078 30.9781 33.5868 29.6389C35.0956 28.2996 36.1207 26.5003 36.5033 24.5195L36.676 24.5776C36.6692 24.4911 36.6662 24.4045 36.6668 24.3178C36.6668 21.7894 36.3154 20.0248 35.9885 18.9248C35.9243 18.7108 35.8535 18.4988 35.7761 18.2892L35.7135 18.2923H35.6524C34.5099 18.3168 33.3679 18.2298 32.2424 18.0326C29.6192 17.5895 26.0671 16.4834 21.884 13.9213C21.7924 14.126 21.7007 14.3567 21.609 14.6134C21.3096 15.4613 21.0636 16.4681 20.8512 17.5314C20.6633 18.468 20.509 19.4106 20.3624 20.2937L20.3058 20.642C20.1485 21.5892 19.9911 22.5196 19.8078 23.1934C19.4869 24.3637 19.16 25.1948 18.8361 25.7906M16.6972 22.9444C16.0079 21.7595 15.4661 20.4948 15.0839 19.1784C14.6271 17.5498 14.459 15.7867 14.8837 14.0435C15.2962 12.3477 16.2939 10.5648 18.3457 8.87507C18.7154 8.62452 18.8835 8.28841 18.9293 8.19827V8.19674C19.0088 8.03125 19.0732 7.85893 19.1218 7.68188C19.1707 7.50771 19.2242 7.26938 19.2746 7.05549L19.328 6.81563C19.4732 6.19994 19.6611 5.52924 19.9972 4.9166C20.3242 4.32383 20.7718 3.8166 21.4379 3.48508C22.1071 3.15049 23.1429 2.92133 24.7654 3.13827C26.9853 3.43313 31.1607 4.14049 34.7449 5.96466C38.3046 7.77507 40.9965 10.5159 40.9965 14.8624C40.9965 16.8638 40.3243 19.1402 39.5146 20.9353C39.3618 19.7651 39.1418 18.8087 38.9157 18.0509C38.7564 17.5099 38.5599 16.9805 38.3275 16.4666C38.2384 16.2768 38.1416 16.0908 38.0372 15.909L38.0112 15.8677L38.0021 15.8524L37.9975 15.8448L37.9944 15.8402L37.4292 14.9633L36.4178 15.1665L36.3964 15.171L36.2482 15.1909C36.0208 15.2164 35.7925 15.2317 35.5637 15.2367C34.6218 15.2548 33.6803 15.1811 32.7526 15.0167C30.2883 14.6012 26.6675 13.4691 22.269 10.5403L21.1996 9.82688L20.315 10.7588C19.5862 11.5258 19.0912 12.5723 18.7292 13.5913C18.3594 14.6378 18.0799 15.8066 17.8553 16.928C17.669 17.8823 17.4999 18.8398 17.348 19.8002L17.29 20.1424C17.1265 21.137 16.9936 21.8963 16.8592 22.3883C16.8042 22.5909 16.7502 22.7763 16.6972 22.9444Z" fill="black"/>
<path fill-rule="evenodd" clip-rule="evenodd" d="M18.2019 36.3201C17.8781 35.6754 17.4793 34.8794 16.8056 35.0337C8.54945 36.9129 0 42.338 0 48.1069V56.4027H55V48.1069C55 43.5633 49.6956 39.232 43.4087 36.6791L43.4011 36.6638L43.3797 36.6226L43.3293 36.647C41.6594 35.9748 39.9208 35.4248 38.1944 35.0337C37.426 34.858 36.6315 35.9152 36.2847 36.5768H18.3333L18.2019 36.3201ZM38.8101 38.3368C39.4783 38.5221 40.1408 38.7294 40.7978 38.9586C40.8161 39.4811 40.7764 40.0983 40.6908 40.7277C40.6043 41.3795 40.4654 42.0233 40.2753 42.6527H38.1944C37.9108 42.6529 37.6328 42.732 37.3916 42.8812C37.1503 43.0304 36.9554 43.2439 36.8286 43.4976L35.3008 46.5531C35.1946 46.7651 35.1391 46.9989 35.1389 47.2361V50.2916C35.1389 50.6968 35.2999 51.0854 35.5864 51.3719C35.8729 51.6584 36.2615 51.8194 36.6667 51.8194H39.7222V48.7638H38.1944V47.5966L39.1386 45.7083H43.3614L44.3056 47.5966V48.7638H42.7778V51.8194H45.8333C46.2385 51.8194 46.6271 51.6584 46.9136 51.3719C47.2001 51.0854 47.3611 50.6968 47.3611 50.2916V47.2361C47.3609 46.9989 47.3054 46.7651 47.1992 46.5531L45.6714 43.4976C45.5446 43.2439 45.3497 43.0304 45.1084 42.8812C44.8672 42.732 44.5892 42.6529 44.3056 42.6527H43.4408C43.6277 41.8438 43.7543 41.0222 43.8197 40.1945C45.3093 40.8988 46.6935 41.707 47.8928 42.5809C50.8292 44.7229 51.9444 46.7273 51.9444 48.1069V53.3472H3.05556V48.1069C3.05556 46.7273 4.17083 44.7229 7.10722 42.5809C8.58306 41.5038 10.3446 40.5291 12.2329 39.7225C12.2857 40.9399 12.481 42.1469 12.815 43.3188L12.8272 43.3616C11.9139 43.9394 11.2341 44.8214 10.9079 45.8518C10.5818 46.8822 10.6303 47.9947 11.0448 48.9929C11.4593 49.991 12.2133 50.8105 13.1734 51.3067C14.1336 51.8029 15.2382 51.9438 16.2922 51.7046C17.3461 51.4653 18.2817 50.8613 18.9335 49.9992C19.5854 49.1371 19.9116 48.0724 19.8545 46.9931C19.7975 45.9138 19.3609 44.8894 18.6219 44.1008C17.8828 43.3122 16.8889 42.8101 15.8156 42.6833L15.7483 42.4633C15.5868 41.8942 15.4668 41.3142 15.3893 40.7277C15.3037 40.1354 15.2679 39.537 15.2824 38.9387C15.2875 38.8104 15.2951 38.6963 15.3053 38.5965C15.4886 38.5394 15.6719 38.485 15.8553 38.433L16.4893 39.6338H38.1287L38.8101 38.3368ZM15.2778 48.7883C16.0997 48.7883 16.8056 48.1161 16.8056 47.2376C16.8056 46.3606 16.0997 45.6869 15.2778 45.6869C14.4558 45.6869 13.75 46.3591 13.75 47.2376C13.75 48.1145 14.4558 48.7883 15.2778 48.7883Z" fill="black"/>
</svg>
