<svg width="55" height="62" viewBox="0 0 55 62" fill="none" xmlns="http://www.w3.org/2000/svg">
<path d="M16.1723 15.9986C16.3072 15.9233 16.4539 15.8788 16.6041 15.8674C16.7543 15.8561 16.9049 15.8783 17.0475 15.9326C17.1901 15.9869 17.3218 16.0724 17.4351 16.1841C17.5484 16.2958 17.641 16.4316 17.7077 16.5837L18.6141 18.6556L20.4623 16.421C20.6694 16.1705 20.9563 16.0229 21.26 16.0108C21.5636 15.9987 21.859 16.123 22.0813 16.3564C22.5431 16.8446 22.5683 17.6623 22.1375 18.1841L19.6992 21.133L20.6193 23.2332L22.1444 21.6664C22.2557 21.5522 22.3859 21.4639 22.5275 21.4064C22.6692 21.349 22.8195 21.3235 22.9698 21.3316C23.1202 21.3396 23.2676 21.381 23.4038 21.4533C23.54 21.5256 23.6622 21.6274 23.7634 21.753C23.8651 21.8785 23.9438 22.0255 23.9949 22.1854C24.0461 22.3453 24.0688 22.515 24.0616 22.6848C24.0545 22.8546 24.0177 23.0211 23.9534 23.1749C23.889 23.3286 23.7984 23.4665 23.6867 23.5807L21.6757 25.6448L22.8857 28.4076C23.0207 28.7148 23.0418 29.0697 22.9446 29.3944C22.8474 29.7191 22.6397 29.987 22.3672 30.1391C22.0948 30.2912 21.7799 30.3151 21.4919 30.2055C21.2038 30.0959 20.9662 29.8618 20.8312 29.5546L19.5766 26.6884L17.3261 27.2025C17.0279 27.2705 16.7179 27.2022 16.4643 27.0125C16.2107 26.8228 16.0344 26.5274 15.9741 26.1911C15.9137 25.8549 15.9744 25.5054 16.1426 25.2196C16.3109 24.9338 16.573 24.735 16.8712 24.667L18.5258 24.2898L17.6149 22.2102L14.1316 22.8018C13.8307 22.8527 13.5242 22.7667 13.2796 22.5629C13.0349 22.3591 12.8722 22.054 12.827 21.7149C12.7819 21.3757 12.8581 21.0303 13.039 20.7545C13.2198 20.4787 13.4904 20.2952 13.7912 20.2443L16.5481 19.7754L15.6532 17.7307C15.5863 17.5786 15.5466 17.4131 15.5365 17.2437C15.5263 17.0742 15.5459 16.9042 15.5941 16.7433C15.6423 16.5824 15.7182 16.4339 15.8174 16.3061C15.9166 16.1783 16.0372 16.0738 16.1723 15.9986ZM42.0681 27.4466C42.2179 27.4291 42.3692 27.445 42.5134 27.4934C42.6577 27.5419 42.7921 27.6219 42.909 27.7289C43.0258 27.8359 43.1228 27.9678 43.1944 28.117C43.266 28.2663 43.3108 28.43 43.3262 28.5988C43.5554 31.062 42.5929 33.3909 40.7745 34.7781C40.5222 34.9544 40.2192 35.0137 39.9289 34.9435C39.6387 34.8734 39.3839 34.6793 39.2179 34.4019C39.0519 34.1246 38.9876 33.7855 39.0386 33.4559C39.0895 33.1263 39.2517 32.8317 39.4911 32.634C40.0332 32.2288 40.4654 31.6626 40.74 30.9979C41.0146 30.3332 41.1209 29.596 41.0472 28.8675C41.0313 28.6986 41.0451 28.5278 41.0879 28.365C41.1306 28.2021 41.2014 28.0504 41.2963 27.9184C41.3911 27.7864 41.5081 27.6768 41.6405 27.5959C41.773 27.5149 41.9183 27.4642 42.0681 27.4466Z" fill="black"/>
<path fill-rule="evenodd" clip-rule="evenodd" d="M11.5832 54.2487C14.9795 54.055 17.1004 52.9906 18.4181 51.4174C18.8787 52.1588 19.6785 52.5928 20.5459 52.4404C25.0995 51.6395 35.247 49.5315 46.6515 45.0856C47.08 44.9328 47.4542 44.63 47.7198 44.2212C47.9854 43.8125 48.1286 43.319 48.1286 42.8123C48.1286 42.3056 47.9854 41.8121 47.7198 41.4033C47.4542 40.9946 47.08 40.6918 46.6515 40.539C45.3582 40.0361 44.0836 39.562 42.8278 39.1168C45.1023 37.7645 46.8474 35.495 47.5303 32.6146C49.0715 26.124 45.0267 20.4768 39.7776 22.2735C39.4075 19.2949 40.2646 16.5514 42.5139 15.0854L41.368 12.8456C38.5859 14.6578 37.4172 17.7591 37.4069 20.9353C35.4349 19.2342 33.0447 19.1696 31.0131 20.367C31.0045 19.9835 30.9561 19.6024 30.8687 19.2316C30.5193 17.7578 29.5854 16.7051 28.3021 16.0993C28.0385 14.7353 27.4312 13.0794 26.2843 11.8446C24.9551 10.416 23.0461 9.70559 20.5585 10.3953C19.947 9.45276 19.1257 8.70871 18.1775 8.23825C16.6478 7.49554 14.7262 7.51104 12.5583 8.91767C10.293 10.1125 9.20104 11.8704 8.89969 13.7136C8.69573 14.9665 8.87333 16.1549 9.16552 17.0926C7.24281 18.9927 6.66416 21.1627 6.94031 23.2074C7.17979 24.9757 8.03458 26.4869 8.87333 27.5125C8.57771 29.0457 8.80802 30.5105 9.67771 31.6794C9.90229 31.9799 10.1582 32.2482 10.4454 32.4841C10.4403 32.5364 10.438 32.5891 10.4385 32.6417C10.4649 35.0416 10.5864 36.9391 11.0229 38.4142C9.61583 39.02 8.28896 40.2509 7.07896 42.1083C6.94559 42.3125 6.87366 42.5594 6.87366 42.8129C6.87366 43.0665 6.94559 43.3134 7.07896 43.5175C8.27864 45.3595 9.59406 46.5865 10.9885 47.1962C10.6173 48.6274 10.4729 50.5106 10.4397 52.9803C10.4361 53.1497 10.4634 53.3182 10.5198 53.4753C10.5763 53.6323 10.6607 53.7747 10.7679 53.8936C10.875 54.0124 11.0027 54.1053 11.1429 54.1664C11.2831 54.2274 11.433 54.2555 11.5832 54.2487ZM20.5333 42.8123C20.5333 44.1427 20.4875 45.4731 20.2996 46.7325V49.8661C21.411 49.6685 22.8514 49.3946 24.5552 49.0278V44.246H26.8469V48.515C30.7479 47.6063 34.6171 46.5317 38.4461 45.2936V42.8136H40.7378V44.5315C42.2767 44.0019 43.8545 43.431 45.4586 42.8136C43.2604 41.966 41.0445 41.1778 38.8128 40.4498L38.6868 40.4628L34.9135 39.2383C34.3192 39.0634 33.7349 38.8955 33.1604 38.7345V44.246H30.8687V38.1093C27.3722 37.1812 23.8468 36.3971 20.2996 35.7585V38.8921C20.4864 40.1515 20.5333 41.4819 20.5333 42.8123ZM18.0079 46.5065V39.1181C17.8475 38.1365 17.5897 37.3059 17.1955 36.6213C16.594 35.5764 15.4355 34.4901 12.7634 34.0897C12.8219 35.6694 12.9536 36.7763 13.1954 37.594L13.8921 39.9474L11.8387 40.8309C11.1249 41.1383 10.3343 41.7505 9.51156 42.8123C10.3251 43.8637 11.11 44.4747 11.817 44.7847L13.7798 45.6449L13.1874 47.9247C12.9697 48.763 12.8345 49.9113 12.7692 51.5336C15.4378 51.1332 16.594 50.0482 17.1955 49.0045C17.5897 48.32 17.8475 47.4894 18.0091 46.5078M19.0942 33.5007C17.7822 32.3537 16.217 31.4598 14.3034 31.2725C12.752 31.1201 11.8594 30.588 11.4331 30.0158C11.055 29.5081 10.8774 28.7409 11.2418 27.5525L11.4916 26.7388L10.9232 26.1653C10.1956 25.4316 9.3901 24.1723 9.20677 22.8186C9.04406 21.6096 9.34083 20.0854 11.2406 18.5341L12.0599 17.8663L11.5741 16.8653C11.2647 16.2285 10.9897 15.199 11.1547 14.1838C11.3059 13.259 11.8548 12.1326 13.5678 11.2414L13.6182 11.2155L13.6652 11.1845C15.2969 10.1125 16.4725 10.2261 17.2746 10.6162C18.1431 11.036 18.7493 11.8691 19.0208 12.4891L19.4689 13.5095L20.4222 13.1388C22.6394 12.2734 23.9181 12.8728 24.7042 13.7188C25.583 14.6643 26.0356 16.1316 26.1525 17.2231L26.243 18.0756L26.9764 18.312C28.0489 18.6568 28.5049 19.2613 28.6573 19.902C28.8292 20.624 28.7031 21.753 27.924 23.2707C27.3377 24.4205 26.9701 25.6953 26.8446 27.0139C26.4814 29.0457 26.6956 31.093 27.3751 32.9582C27.4759 33.4167 27.5814 33.8598 27.681 34.2808L27.7211 34.4462C27.741 34.5271 27.7582 34.6072 27.7727 34.6864C24.734 33.9683 22.2498 33.4852 20.5482 33.1855C20.0454 33.0955 19.5316 33.207 19.0942 33.5007ZM39.0202 37.8278C36.7317 37.0885 34.4287 36.4072 32.1131 35.7843C30.9978 34.8323 30.1176 33.5737 29.5568 32.1289C29.213 30.5195 28.9758 28.9501 29.1042 27.4466C29.1271 27.32 29.1538 27.1935 29.1844 27.0669C29.818 24.3983 31.3534 22.8134 32.8167 22.3174C34.1779 21.8563 35.7557 22.2231 37.0333 24.1826L38.1184 25.8488L39.7982 25.0196C41.7725 24.0431 43.2999 24.6153 44.275 25.783C45.3234 27.0398 45.9502 29.2769 45.3177 31.9468C44.5878 35.0184 42.1082 37.333 39.0202 37.8278Z" fill="black"/>
</svg>
