<svg width="55" height="36" viewBox="0 0 55 36" fill="none" xmlns="http://www.w3.org/2000/svg">
<path d="M47.4898 9.56315C47.6864 9.59396 47.8905 9.59936 48.0903 9.57904C48.2902 9.55872 48.4817 9.51307 48.6539 9.44476C48.8261 9.37644 48.9755 9.28682 49.0933 9.18108C49.2112 9.07535 49.2952 8.95562 49.3406 8.82883C49.3859 8.70205 49.3916 8.57073 49.3574 8.44252C49.3231 8.3143 49.2496 8.19174 49.1411 8.08194C49.0326 7.97214 48.8913 7.87729 48.7253 7.8029C48.5593 7.72851 48.372 7.67605 48.1742 7.64858L38.0668 6.15544C37.8687 6.12156 37.662 6.11366 37.459 6.13222C37.2561 6.15077 37.061 6.19539 36.8855 6.26343C36.7099 6.33147 36.5575 6.42153 36.4371 6.52824C36.3168 6.63496 36.2312 6.75615 36.1852 6.8846C36.1393 7.01305 36.134 7.14613 36.1697 7.27592C36.2054 7.40571 36.2814 7.52955 36.3931 7.64006C36.5048 7.75058 36.65 7.84551 36.8199 7.91921C36.9898 7.9929 37.1811 8.04385 37.3823 8.06902L47.4898 9.56315Z" fill="black"/>
<path fill-rule="evenodd" clip-rule="evenodd" d="M42.7781 15.7173C46.0196 15.7173 49.1282 14.8894 51.4203 13.4156C53.7123 11.9418 55 9.94292 55 7.85867C55 5.77442 53.7123 3.77554 51.4203 2.30175C49.1282 0.827964 46.0196 0 42.7781 0C39.5367 0 36.428 0.827964 34.136 2.30175C31.8439 3.77554 30.5563 5.77442 30.5563 7.85867C30.5563 9.94292 31.8439 11.9418 34.136 13.4156C36.428 14.8894 39.5367 15.7173 42.7781 15.7173ZM42.7781 13.7527C43.9819 13.7527 45.1738 13.6002 46.286 13.304C47.3981 13.0078 48.4086 12.5737 49.2598 12.0264C50.1109 11.479 50.7861 10.8293 51.2468 10.1142C51.7074 9.39911 51.9445 8.63268 51.9445 7.85867C51.9445 7.08466 51.7074 6.31823 51.2468 5.60313C50.7861 4.88804 50.1109 4.23829 49.2598 3.69098C48.4086 3.14367 47.3981 2.70952 46.286 2.41332C45.1738 2.11712 43.9819 1.96467 42.7781 1.96467C40.347 1.96467 38.0155 2.58564 36.2965 3.69098C34.5775 4.79632 33.6117 6.29548 33.6117 7.85867C33.6117 9.42186 34.5775 10.921 36.2965 12.0264C38.0155 13.1317 40.347 13.7527 42.7781 13.7527ZM16.4675 3.18767C15.479 1.68274 12.17 1.53146 10.8424 2.92932L0.44767 13.8656C-0.751601 15.127 0.588222 16.738 2.92718 16.8451L21.0553 17.6761C23.3927 17.7842 25.0946 16.3126 24.2024 14.955L16.4675 3.18767ZM13.4624 3.9421L13.4487 3.95389L3.07232 14.8725L3.07537 14.8745L3.09065 14.8784C3.10817 14.8829 3.12681 14.8852 3.14565 14.8853L21.2753 15.7164H21.3333C21.3492 15.713 21.3642 15.7081 21.3776 15.7016L13.6534 3.95291L13.6473 3.94309C13.6224 3.93356 13.5938 3.92879 13.5648 3.92933C13.5326 3.92727 13.5001 3.93031 13.4701 3.93818L13.4655 3.93916L13.4624 3.9421ZM44.894 29.8237C47.0974 29.1631 48.8024 27.9667 49.634 26.4978C50.4656 25.0289 50.3556 23.4078 49.3283 21.991C48.3009 20.5742 46.4404 19.4779 44.156 18.9432C41.8715 18.4085 39.3503 18.4792 37.1469 19.1398L20.5313 24.1202C18.3277 24.7808 16.6225 25.9772 15.7907 27.4462C14.959 28.9152 15.0689 30.5365 16.0963 31.9534C17.1236 33.3702 18.9842 34.4667 21.2688 35.0015C23.5534 35.5363 26.0748 35.4656 28.2784 34.8051L44.894 29.8237ZM21.8222 25.9022C21.0869 26.117 20.4251 26.4233 19.8751 26.8036C19.325 27.1838 18.8977 27.6304 18.6177 28.1175C18.3377 28.6046 18.2107 29.1225 18.244 29.6414C18.2772 30.1603 18.4701 30.6697 18.8114 31.1404C19.1527 31.611 19.6358 32.0335 20.2326 32.3834C20.8294 32.7332 21.5281 33.0035 22.2884 33.1787C23.0487 33.3539 23.8555 33.4304 24.662 33.4039C25.4686 33.3773 26.259 33.2482 26.9875 33.0241L33.8103 30.9779L28.6466 23.856L21.8222 25.9022ZM36.5801 30.1478L31.4148 23.0259L38.4378 20.9198C39.1669 20.693 39.9587 20.5617 40.7674 20.5334C41.5761 20.5052 42.3854 20.5806 43.1484 20.7552C43.9113 20.9298 44.6127 21.2003 45.2117 21.5507C45.8107 21.9012 46.2953 22.3247 46.6375 22.7967C46.9797 23.2686 47.1726 23.7796 47.205 24.3C47.2374 24.8203 47.1086 25.3395 46.8261 25.8276C46.5436 26.3156 46.113 26.7627 45.5595 27.1428C45.0059 27.5229 44.3404 27.8284 43.6016 28.0417L36.5801 30.1478Z" fill="black"/>
</svg>
