<svg width="23" height="23" viewBox="0 0 23 23" fill="none" xmlns="http://www.w3.org/2000/svg">
<path fill-rule="evenodd" clip-rule="evenodd" d="M11.5 0C5.14874 0 0 5.14869 0 11.5C0 17.8512 5.14874 23 11.5 23C17.8513 23 23 17.8513 23 11.5C23 5.14869 17.8513 0 11.5 0ZM11.5 20.7C6.42713 20.7 2.30002 16.5729 2.30002 11.5C2.30002 6.42708 6.42708 2.30002 11.5 2.30002C16.5729 2.30002 20.7 6.42708 20.7 11.5C20.7 16.5729 16.5729 20.7 11.5 20.7ZM12.94 6.89999C12.94 7.73382 12.3329 8.33751 11.5117 8.33751C10.6572 8.33751 10.065 7.73376 10.065 6.88404C10.065 6.06736 10.6732 5.46253 11.5117 5.46253C12.3329 5.46253 12.94 6.06736 12.94 6.89999ZM10.3525 10.35H12.6525V17.25H10.3525V10.35Z" fill="black"/>
</svg>
