<svg width="22" height="22" viewBox="0 0 22 22" fill="none" xmlns="http://www.w3.org/2000/svg">
<path d="M2.77779 10.9422C1.82978 9.29019 1.37177 7.94019 1.09577 6.57218C0.68776 4.54817 1.62177 2.57117 3.1688 1.30916C3.82281 0.776159 4.57282 0.959159 4.95982 1.65216L5.83284 3.21917C6.52485 4.46117 6.87085 5.08117 6.80285 5.73918C6.73385 6.39818 6.26684 6.93418 5.33383 8.00619L2.77779 10.9422ZM2.77779 10.9422C4.69682 14.2882 7.70787 17.3022 11.0579 19.2222M11.0579 19.2222C12.7109 20.1702 14.06 20.6282 15.428 20.9042C17.452 21.3122 19.429 20.3782 20.6901 18.8312C21.2241 18.1772 21.0411 17.4272 20.3481 17.0402L18.781 16.1672C17.539 15.4752 16.919 15.1292 16.261 15.1972C15.602 15.2662 15.066 15.7332 13.994 16.6662L11.0579 19.2222Z" stroke="black" stroke-width="1.5" stroke-linecap="round" stroke-linejoin="round"/>
</svg>
