<svg width="29" height="28" viewBox="0 0 29 28" fill="none" xmlns="http://www.w3.org/2000/svg">
<path fill-rule="evenodd" clip-rule="evenodd" d="M8.56242 3.2121C8.92256 1.33108 10.4953 0 12.296 0H16.704C18.5047 0 20.0761 1.33108 20.4376 3.2121C20.4774 3.41923 20.5816 3.60607 20.7333 3.74255C20.885 3.87903 21.0754 3.95721 21.2739 3.96451H21.3184C23.2108 4.05354 24.6648 4.30051 25.8788 5.14913C26.6436 5.68328 27.3018 6.36964 27.8144 7.17231C28.4524 8.16882 28.7329 9.31467 28.8678 10.6989C29 12.0529 29 13.7487 29 15.8968V16.0189C29 18.167 29 19.8642 28.8678 21.2168C28.7329 22.601 28.4524 23.7469 27.8144 24.7448C27.299 25.5469 26.6415 26.2341 25.8788 26.768C24.9306 27.4299 23.842 27.7229 22.5229 27.8622C21.2307 28 19.6107 28 17.5524 28H11.4476C9.38926 28 7.7693 28 6.47712 27.8622C5.15795 27.7229 4.06944 27.4314 3.12121 26.768C2.35836 26.2337 1.70087 25.546 1.18563 24.7434C0.547628 23.7469 0.26707 22.601 0.132186 21.2168C7.03473e-08 19.8642 0 18.167 0 16.0189V15.8968C0 13.7487 7.03473e-08 12.0529 0.132186 10.6989C0.26707 9.31467 0.547628 8.16882 1.18563 7.17231C1.70087 6.36974 2.35836 5.682 3.12121 5.14769C4.33516 4.30051 5.78921 4.05354 7.68163 3.96595L7.70456 3.96451H7.72614C7.92463 3.95721 8.11504 3.87903 8.26673 3.74255C8.41843 3.60607 8.52257 3.41923 8.56242 3.2121ZM12.296 2.15385C11.4327 2.15385 10.7084 2.78995 10.5452 3.64144C10.2822 5.0199 9.13298 6.10544 7.75042 6.11836C5.93219 6.20451 4.95833 6.44144 4.22995 6.94974C3.68967 7.32872 3.22377 7.81591 2.85819 8.3842C2.48591 8.96574 2.262 9.71097 2.1433 10.9214C2.0246 12.1506 2.02326 13.7358 2.02326 15.9586C2.02326 18.1813 2.02326 19.7651 2.14465 20.9943C2.262 22.2047 2.48591 22.9499 2.85953 23.5329C3.22102 24.0987 3.68637 24.5869 4.2313 24.9674C4.79377 25.3594 5.51405 25.5963 6.67809 25.7198C7.85698 25.8447 9.37577 25.8462 11.5029 25.8462H17.4971C19.6229 25.8462 21.1417 25.8462 22.3219 25.7198C23.486 25.5963 24.2062 25.3608 24.7687 24.9674C25.3136 24.5869 25.7803 24.0987 26.1418 23.5315C26.5141 22.9499 26.738 22.2047 26.8567 20.9943C26.9754 19.7651 26.9767 18.1799 26.9767 15.9586C26.9767 13.7372 26.9767 12.1506 26.8554 10.9214C26.738 9.71097 26.5141 8.96574 26.1405 8.3842C25.775 7.81539 25.3091 7.3277 24.7687 6.94831C24.043 6.44144 23.0692 6.20451 21.2482 6.11836C19.867 6.104 18.7178 5.02133 18.4548 3.64144C18.3685 3.2168 18.1471 2.83689 17.8281 2.56586C17.5092 2.29484 17.1121 2.14931 16.704 2.15385H12.296ZM14.5 12.2051C13.6951 12.2051 12.9232 12.5455 12.354 13.1514C11.7849 13.7573 11.4651 14.579 11.4651 15.4359C11.4651 16.2928 11.7849 17.1145 12.354 17.7204C12.9232 18.3263 13.6951 18.6667 14.5 18.6667C15.3049 18.6667 16.0768 18.3263 16.646 17.7204C17.2151 17.1145 17.5349 16.2928 17.5349 15.4359C17.5349 14.579 17.2151 13.7573 16.646 13.1514C16.0768 12.5455 15.3049 12.2051 14.5 12.2051ZM9.44186 15.4359C9.44186 14.0078 9.97477 12.6382 10.9234 11.6284C11.8719 10.6186 13.1585 10.0513 14.5 10.0513C15.8415 10.0513 17.1281 10.6186 18.0766 11.6284C19.0252 12.6382 19.5581 14.0078 19.5581 15.4359C19.5581 16.864 19.0252 18.2336 18.0766 19.2434C17.1281 20.2532 15.8415 20.8205 14.5 20.8205C13.1585 20.8205 11.8719 20.2532 10.9234 19.2434C9.97477 18.2336 9.44186 16.864 9.44186 15.4359ZM21.5814 11.1282C21.5814 10.8426 21.688 10.5687 21.8777 10.3667C22.0674 10.1647 22.3247 10.0513 22.593 10.0513H23.9419C24.2102 10.0513 24.4675 10.1647 24.6572 10.3667C24.8469 10.5687 24.9535 10.8426 24.9535 11.1282C24.9535 11.4138 24.8469 11.6877 24.6572 11.8897C24.4675 12.0917 24.2102 12.2051 23.9419 12.2051H22.593C22.3247 12.2051 22.0674 12.0917 21.8777 11.8897C21.688 11.6877 21.5814 11.4138 21.5814 11.1282Z" fill="black"/>
</svg>
