<svg width="30" height="30" viewBox="0 0 30 30" fill="none" xmlns="http://www.w3.org/2000/svg">
<path d="M11.5385 14.5755H9.23077V12.6323H11.5385V14.5755ZM20.7692 14.5755H18.4615V12.6323H20.7692V14.5755ZM30 12.6323V16.5188H27.6923V21.3769C27.6923 21.7817 27.6022 22.1613 27.4219 22.5155C27.2416 22.8697 26.9952 23.1784 26.6827 23.4416C26.3702 23.7047 26.0036 23.9122 25.5829 24.064C25.1623 24.2158 24.7115 24.2917 24.2308 24.2917H19.4712L11.5385 30V24.2917H5.76923C5.28846 24.2917 4.83774 24.2158 4.41707 24.064C3.99639 23.9122 3.62981 23.7047 3.31731 23.4416C3.00481 23.1784 2.75841 22.8697 2.57812 22.5155C2.39784 22.1613 2.30769 21.7817 2.30769 21.3769V16.5188H0V12.6323H2.30769V9.71745C2.30769 9.31261 2.39784 8.93307 2.57812 8.57884C2.75841 8.2246 3.00481 7.91591 3.31731 7.65276C3.62981 7.38962 3.99639 7.18214 4.41707 7.03032C4.83774 6.87851 5.28846 6.8026 5.76923 6.8026H13.8462V3.62965C13.4976 3.4576 13.2212 3.21975 13.0168 2.91612C12.8125 2.61249 12.7043 2.28862 12.6923 1.9445C12.6923 1.67124 12.7524 1.41821 12.8726 1.18543C12.9928 0.952642 13.155 0.750221 13.3594 0.578164C13.5637 0.406106 13.8101 0.264412 14.0986 0.153081C14.387 0.0417492 14.6875 -0.0088559 15 0.00126513C15.3245 0.00126513 15.625 0.0518703 15.9014 0.153081C16.1779 0.254291 16.4183 0.390925 16.6226 0.562982C16.8269 0.73504 16.9952 0.942521 17.1274 1.18543C17.2596 1.42833 17.3197 1.68136 17.3077 1.9445C17.3077 2.28862 17.2055 2.61249 17.0012 2.91612C16.7969 3.21975 16.5144 3.4576 16.1538 3.62965V6.8026H24.2308C24.7115 6.8026 25.1623 6.87851 25.5829 7.03032C26.0036 7.18214 26.3702 7.38962 26.6827 7.65276C26.9952 7.91591 27.2416 8.2246 27.4219 8.57884C27.6022 8.93307 27.6923 9.31261 27.6923 9.71745V12.6323H30ZM25.3846 9.71745C25.3846 9.45431 25.2704 9.22658 25.0421 9.03428C24.8137 8.84198 24.5433 8.74584 24.2308 8.74584H5.76923C5.45673 8.74584 5.1863 8.84198 4.95793 9.03428C4.72957 9.22658 4.61538 9.45431 4.61538 9.71745V21.3769C4.61538 21.64 4.72957 21.8678 4.95793 22.0601C5.1863 22.2524 5.45673 22.3485 5.76923 22.3485H13.8462V25.7795L18.6058 22.3485H24.2308C24.5433 22.3485 24.8137 22.2524 25.0421 22.0601C25.2704 21.8678 25.3846 21.64 25.3846 21.3769V9.71745ZM10.0421 16.7313C10.7031 17.288 11.4603 17.7131 12.3137 18.0066C13.1671 18.3001 14.0625 18.4519 15 18.462C15.9375 18.462 16.8329 18.3153 17.6863 18.0218C18.5397 17.7283 19.2969 17.2981 19.9579 16.7313L21.5805 18.1129C20.7031 18.8517 19.6995 19.4185 18.5697 19.8132C17.4399 20.2079 16.25 20.4053 15 20.4053C13.762 20.4053 12.5781 20.2079 11.4483 19.8132C10.3185 19.4185 9.30889 18.8517 8.41947 18.1129L10.0421 16.7313Z" fill="white"/>
</svg>
