<svg width="16" height="22" viewBox="0 0 16 22" fill="none" xmlns="http://www.w3.org/2000/svg">
<path d="M8.625 0.6875C8.625 0.505164 8.55915 0.330295 8.44194 0.201364C8.32473 0.0724328 8.16576 0 8 0C7.83424 0 7.67527 0.0724328 7.55806 0.201364C7.44085 0.330295 7.375 0.505164 7.375 0.6875V1.65H3.625C3.06141 1.65 2.52091 1.89627 2.1224 2.33464C1.72388 2.773 1.5 3.36756 1.5 3.9875V8.6625C1.5 9.28244 1.72388 9.877 2.1224 10.3154C2.52091 10.7537 3.06141 11 3.625 11H12.375C12.9386 11 13.4791 10.7537 13.8776 10.3154C14.2761 9.877 14.5 9.28244 14.5 8.6625V3.9875C14.5 3.36756 14.2761 2.773 13.8776 2.33464C13.4791 1.89627 12.9386 1.65 12.375 1.65H8.625V0.6875ZM2.75 3.9875C2.75 3.4562 3.142 3.025 3.625 3.025H12.375C12.8585 3.025 13.25 3.4562 13.25 3.9875V8.6625C13.25 8.91777 13.1578 9.16259 12.9937 9.34309C12.8296 9.52359 12.6071 9.625 12.375 9.625H3.625C3.39294 9.625 3.17038 9.52359 3.00628 9.34309C2.84219 9.16259 2.75 8.91777 2.75 8.6625V3.9875ZM5.5 7.7C5.83152 7.7 6.14946 7.55513 6.38388 7.29727C6.6183 7.03941 6.75 6.68967 6.75 6.325C6.75 5.96033 6.6183 5.61059 6.38388 5.35273C6.14946 5.09487 5.83152 4.95 5.5 4.95C5.16848 4.95 4.85054 5.09487 4.61612 5.35273C4.3817 5.61059 4.25 5.96033 4.25 6.325C4.25 6.68967 4.3817 7.03941 4.61612 7.29727C4.85054 7.55513 5.16848 7.7 5.5 7.7ZM11.75 6.325C11.75 6.68967 11.6183 7.03941 11.3839 7.29727C11.1495 7.55513 10.8315 7.7 10.5 7.7C10.1685 7.7 9.85054 7.55513 9.61612 7.29727C9.3817 7.03941 9.25 6.68967 9.25 6.325C9.25 5.96033 9.3817 5.61059 9.61612 5.35273C9.85054 5.09487 10.1685 4.95 10.5 4.95C10.8315 4.95 11.1495 5.09487 11.3839 5.35273C11.6183 5.61059 11.75 5.96033 11.75 6.325ZM1.25 15.5375C1.25 15.0062 1.642 14.575 2.125 14.575H13.875C14.3585 14.575 14.75 15.0062 14.75 15.5375V16.115C14.75 17.3503 14.222 18.4454 13.131 19.2582C12.021 20.0849 10.3135 20.625 8 20.625C5.6865 20.625 3.9785 20.0849 2.869 19.2582C1.778 18.4454 1.25 17.3503 1.25 16.115V15.5375ZM2.125 13.2C1.56141 13.2 1.02091 13.4463 0.622398 13.8846C0.223883 14.323 0 14.9176 0 15.5375V16.115C0 17.8497 0.7675 19.3534 2.168 20.3967C3.55 21.4263 5.53 22 8 22C10.47 22 12.45 21.4263 13.832 20.3967C15.2325 19.3534 16 17.8497 16 16.115V15.5375C16 14.9176 15.7761 14.323 15.3776 13.8846C14.9791 13.4463 14.4386 13.2 13.875 13.2H2.125Z" fill="black"/>
</svg>
