<svg width="26" height="26" viewBox="0 0 26 26" fill="none" xmlns="http://www.w3.org/2000/svg">
<path d="M12.3706 2.25879H3.52681C2.85665 2.25879 2.21395 2.52501 1.74008 2.99887C1.26622 3.47274 1 4.11544 1 4.78559V22.4732C1 23.1434 1.26622 23.7861 1.74008 24.26C2.21395 24.7338 2.85665 25 3.52681 25H21.2144C21.8846 25 22.5273 24.7338 23.0012 24.26C23.475 23.7861 23.7412 23.1434 23.7412 22.4732V13.6294" stroke="black" stroke-width="2" stroke-linecap="round" stroke-linejoin="round"/>
<path d="M20.425 1.78498C20.9276 1.28236 21.6093 1 22.3201 1C23.0309 1 23.7126 1.28236 24.2152 1.78498C24.7178 2.28759 25.0002 2.96928 25.0002 3.68008C25.0002 4.39088 24.7178 5.07257 24.2152 5.57519L12.8282 16.9635C12.5282 17.2632 12.1575 17.4826 11.7505 17.6015L8.12071 18.6628C8.012 18.6945 7.89676 18.6964 7.78706 18.6683C7.67736 18.6402 7.57723 18.5831 7.49715 18.503C7.41708 18.4229 7.36 18.3228 7.3319 18.2131C7.30379 18.1034 7.30569 17.9882 7.3374 17.8795L8.39866 14.2497C8.51808 13.843 8.73793 13.4728 9.03794 13.1733L20.425 1.78498Z" stroke="black" stroke-width="2" stroke-linecap="round" stroke-linejoin="round"/>
</svg>
