<svg width="30" height="30" viewBox="0 0 30 30" fill="none" xmlns="http://www.w3.org/2000/svg">
<path d="M9.99983 20C8.24983 19.4169 6.22796 18.0169 5.32733 16.6094C5.20737 16.4143 5.15366 16.1856 5.17421 15.9575L5.32733 13.6137C5.36046 13.1075 5.95858 12.8387 6.37171 13.1325C7.70608 14.0806 10.1423 15.625 11.8748 15.625C16.2498 15.625 19.9998 14.0625 21.8748 10.625" stroke="black" stroke-width="2" stroke-linecap="round" stroke-linejoin="round"/>
<path d="M16.25 26.875C22.5 25.625 28.2762 19.0719 26.7918 12.4631L26.2493 10V5L22.4993 4.375C22.4993 12.4631 20.6243 18.75 12.4993 20C8.76433 20.575 5.1837 19.7588 2.4187 18.1738L3.12495 22.5C4.37495 25.625 9.99995 28.125 16.25 26.875Z" fill="black" stroke="black" stroke-width="2" stroke-linecap="round" stroke-linejoin="round"/>
</svg>
