<svg width="30" height="30" viewBox="0 0 30 30" fill="none" xmlns="http://www.w3.org/2000/svg">
<path d="M9.375 9.60933C9.375 9.60933 9.45937 7.67574 11.3402 6.12535C12.457 5.20484 13.7982 4.93824 15 4.92183C16.0975 4.90835 17.0783 5.0941 17.6648 5.38003C18.6674 5.87105 20.625 7.06636 20.625 9.60933C20.625 12.2853 18.9152 13.4982 16.9717 14.8347C15.0281 16.1712 14.5312 17.482 14.5312 18.9843" stroke="black" stroke-width="1.25" stroke-miterlimit="10" stroke-linecap="round"/>
<path d="M14.5312 25.3119C15.5668 25.3119 16.4062 24.4724 16.4062 23.4369C16.4062 22.4014 15.5668 21.5619 14.5312 21.5619C13.4957 21.5619 12.6562 22.4014 12.6562 23.4369C12.6562 24.4724 13.4957 25.3119 14.5312 25.3119Z" fill="black"/>
</svg>
