<svg width="26" height="25" viewBox="0 0 26 25" fill="none" xmlns="http://www.w3.org/2000/svg">
<path d="M16.2778 6.55556V3.77778C16.2778 3.04107 15.9851 2.33453 15.4642 1.81359C14.9433 1.29266 14.2367 1 13.5 1H3.77778C3.04107 1 2.33453 1.29266 1.81359 1.81359C1.29266 2.33453 1 3.04107 1 3.77778V20.4444C1 21.1812 1.29266 21.8877 1.81359 22.4086C2.33453 22.9296 3.04107 23.2222 3.77778 23.2222H13.5C14.2367 23.2222 14.9433 22.9296 15.4642 22.4086C15.9851 21.8877 16.2778 21.1812 16.2778 20.4444V17.6667" stroke="black" stroke-width="2" stroke-linecap="round" stroke-linejoin="round"/>
<path d="M8 13.1667H24.6667M24.6667 13.1667L20.5 9M24.6667 13.1667L20.5 17.3333" stroke="black" stroke-width="2" stroke-linecap="round" stroke-linejoin="round"/>
</svg>
