<svg width="29" height="29" viewBox="0 0 29 29" fill="none" xmlns="http://www.w3.org/2000/svg">
<path d="M8.15073 7.4375C7.60735 7.4375 7.2451 7.85 7.2451 8.125V11.5625H5.43382V8.125C5.43382 7.7125 5.07157 7.4375 4.52819 7.4375C3.9848 7.4375 3.62255 7.85 3.62255 8.125V11.5625H1.81127V8.125C1.81127 7.7125 1.44902 7.4375 0.905637 7.4375C0.362255 7.4375 0 7.85 0 8.125V12.6625C0 13.9 1.26789 14.8625 2.71691 15V24.625C2.71691 25.45 3.44142 26 4.52819 26C5.61495 26 6.33946 25.45 6.33946 24.625V15C7.78848 14.8625 9.05637 13.9 9.05637 12.6625V8.125C9.05637 7.85 8.69412 7.4375 8.15073 7.4375ZM11.7733 8.125V16.375H13.5846V24.625C13.5846 25.45 14.3091 26 15.3958 26C16.4826 26 17.2071 25.45 17.2071 24.625V4C14.1279 4 11.7733 5.7875 11.7733 8.125ZM24.4522 6.75C21.9164 6.75 19.924 8.8125 19.924 11.2875C19.7429 12.9375 20.8297 14.45 22.6409 15.4125V24.625C22.6409 25.45 23.3654 26 24.4522 26C25.539 26 26.2635 25.45 26.2635 24.625V15.4125C28.0748 14.45 29.1615 12.9375 28.9804 11.2875C28.9804 8.8125 26.988 6.75 24.4522 6.75Z" fill="black"/>
</svg>
