<svg width="22" height="30" viewBox="0 0 22 30" fill="none" xmlns="http://www.w3.org/2000/svg">
<path d="M6.71423 5.28571C6.71423 4.14907 7.16576 3.05898 7.96949 2.25526C8.77322 1.45153 9.86331 1 10.9999 1C12.1366 1 13.2267 1.45153 14.0304 2.25526C14.8341 3.05898 15.2857 4.14907 15.2857 5.28571V12.4286C15.2857 13.5652 14.8341 14.6553 14.0304 15.459C13.2267 16.2628 12.1366 16.7143 10.9999 16.7143C9.86331 16.7143 8.77322 16.2628 7.96949 15.459C7.16576 14.6553 6.71423 13.5652 6.71423 12.4286V5.28571Z" stroke="black" stroke-width="2" stroke-linecap="round" stroke-linejoin="round"/>
<path d="M1 12.4285C1 15.0807 2.05357 17.6243 3.92893 19.4996C5.8043 21.375 8.34784 22.4285 11 22.4285M11 22.4285C13.6522 22.4285 16.1957 21.375 18.0711 19.4996C19.9464 17.6243 21 15.0807 21 12.4285M11 22.4285V28.1428M5.28571 28.1428H16.7143" stroke="black" stroke-width="2" stroke-linecap="round" stroke-linejoin="round"/>
</svg>
