<svg width="20" height="21" viewBox="0 0 20 21" fill="none" xmlns="http://www.w3.org/2000/svg">
<path d="M1.02843 13.0979C0.826637 14.4186 1.72758 15.3347 2.83032 15.7913C7.05842 17.544 12.9416 17.544 17.1697 15.7913C18.2724 15.3347 19.1734 14.4176 18.9716 13.0979C18.8484 12.286 18.2355 11.6106 17.7817 10.9503C17.1877 10.0749 17.1289 9.12087 17.128 8.10529C17.1289 4.18128 13.9382 1 10 1C6.06179 1 2.87106 4.18128 2.87106 8.10529C2.87106 9.12087 2.81232 10.0758 2.21737 10.9503C1.76453 11.6106 1.15253 12.286 1.02843 13.0979Z" stroke="black" stroke-width="1.5" stroke-linecap="round" stroke-linejoin="round"/>
<path d="M6.21033 17.1053C6.64422 18.7396 8.17706 19.9475 9.9998 19.9475C11.8235 19.9475 13.3544 18.7396 13.7893 17.1053" stroke="black" stroke-width="1.5" stroke-linecap="round" stroke-linejoin="round"/>
</svg>
