<svg width="33" height="32" viewBox="0 0 33 32" fill="none" xmlns="http://www.w3.org/2000/svg">
<path d="M1.66016 27.25C1.66016 25.2609 2.45473 23.3532 3.86909 21.9467C5.28345 20.5402 7.20173 19.75 9.20194 19.75H24.2855C26.2857 19.75 28.204 20.5402 29.6183 21.9467C31.0327 23.3532 31.8273 25.2609 31.8273 27.25C31.8273 28.2446 31.43 29.1984 30.7228 29.9016C30.0156 30.6049 29.0565 31 28.0564 31H5.43105C4.43095 31 3.4718 30.6049 2.76462 29.9016C2.05745 29.1984 1.66016 28.2446 1.66016 27.25Z" stroke="white" stroke-width="1.5" stroke-linejoin="round"/>
<path d="M16.7437 12.25C19.8676 12.25 22.4001 9.7316 22.4001 6.625C22.4001 3.5184 19.8676 1 16.7437 1C13.6198 1 11.0874 3.5184 11.0874 6.625C11.0874 9.7316 13.6198 12.25 16.7437 12.25Z" stroke="white" stroke-width="1.5"/>
</svg>
