<svg width="36" height="36" viewBox="0 0 36 36" fill="none" xmlns="http://www.w3.org/2000/svg">
<g clip-path="url(#clip0_187_462)">
<path d="M16.9548 19.6016C16.67 19.4211 16.3516 19.3001 16.0188 19.246L5.49001 17.5274C5.36429 17.5069 5.24786 17.4484 5.15636 17.3597C5.06486 17.2711 5.00265 17.1566 4.9781 17.0316C4.95354 16.9066 4.96781 16.7771 5.01899 16.6604C5.07017 16.5438 5.15581 16.4456 5.26442 16.379L26.6511 3.29027C26.7503 3.22717 26.8655 3.19364 26.9832 3.19362C27.1008 3.1936 27.216 3.22708 27.3153 3.29015C27.4146 3.35321 27.4939 3.44325 27.5439 3.54973C27.5939 3.65621 27.6125 3.77473 27.5976 3.89141L24.8438 28.8137C24.8297 28.9403 24.7773 29.0596 24.6934 29.1555C24.6096 29.2514 24.4984 29.3194 24.3749 29.3503C24.2513 29.3812 24.1212 29.3736 24.0021 29.3285C23.883 29.2833 23.7805 29.2028 23.7085 29.0978L17.6759 20.2963C17.4849 20.0184 17.2396 19.7821 16.9548 19.6016ZM16.9548 19.6016L27.3125 3.29617" stroke="black" stroke-width="2" stroke-linecap="round" stroke-linejoin="round"/>
</g>
<defs>
<clipPath id="clip0_187_462">
<rect width="29.9673" height="29.9673" fill="white" transform="translate(0.0960693 6.62341) rotate(-12.5808)"/>
</clipPath>
</defs>
</svg>
