<svg width="30" height="30" viewBox="0 0 30 30" fill="none" xmlns="http://www.w3.org/2000/svg">
<path d="M26.7803 17.9136L26.6453 16.5567L26.6003 16.5608L26.5567 16.5689L26.7803 17.9136ZM26.7803 17.9136L26.9167 19.2704L26.9617 19.2663L27.0053 19.2595L26.7803 17.9136ZM21.271 25.3893L22.1342 24.3338L22.1233 24.3257L21.271 25.3893ZM21.271 25.3893L20.4078 26.4448L20.4187 26.4544L21.271 25.3893ZM8.73042 25.3893L7.8672 24.3352L7.84538 24.3529L7.82492 24.3707L8.73042 25.3893ZM8.73042 25.3893L9.59364 26.4462L9.61546 26.4285L9.63591 26.4094L8.73042 25.3893ZM3.21972 12.0878V10.7241H3.15153L3.08471 10.731L3.21972 12.0878ZM3.21972 12.0878V13.4515H3.2879L3.35609 13.4447L3.21972 12.0878ZM19.2704 3.08335C19.2479 2.82104 19.2156 2.55953 19.1763 2.29922C19.1343 2.01265 19.0468 1.73461 18.9172 1.47555L16.4939 2.72742C16.4626 2.66606 16.4694 2.64424 16.4871 2.75197C16.5076 2.87334 16.5253 3.04244 16.5567 3.35609L19.2704 3.08335ZM19.4 4.37886C19.4859 4.49068 19.4573 4.54114 19.4095 4.27522C19.3645 4.02157 19.3291 3.66565 19.2704 3.08335L16.5553 3.35472C16.6099 3.89202 16.6562 4.37477 16.7258 4.75933C16.7926 5.12753 16.9099 5.61164 17.2303 6.03166L19.4 4.37886ZM19.4 4.37886L17.2303 6.03166C17.5222 6.41465 17.9102 6.71355 18.355 6.89798C18.7998 7.08241 19.2855 7.1458 19.7627 7.08171L19.4 4.37886ZM20.4064 3.55382C20.1008 3.81212 19.7865 4.06001 19.4641 4.29704C19.2418 4.45114 19.2595 4.39659 19.4 4.37886L19.7627 7.08171C20.2864 7.01079 20.7119 6.75169 21.0201 6.53623C21.3405 6.31531 21.7155 6.00711 22.1328 5.66483L20.4064 3.55382ZM21.7919 2.66742C21.5174 2.75874 21.2592 2.89315 21.0269 3.06562C20.836 3.20199 20.6219 3.37791 20.4064 3.55382L22.1328 5.66483C22.3769 5.46573 22.5092 5.35799 22.6101 5.28708C22.6988 5.22299 22.6865 5.24481 22.6224 5.26526L21.7919 2.66742ZM23.7065 2.76288C23.1009 2.50043 22.4206 2.46651 21.7919 2.66742L22.6224 5.26526L23.7065 2.76288ZM24.9966 3.78292C24.813 3.59413 24.6233 3.4113 24.4279 3.23472C24.2136 3.04007 23.9696 2.8808 23.7052 2.76288L22.6224 5.26526C22.5597 5.23799 22.5501 5.21617 22.6319 5.28844C22.7247 5.37027 22.846 5.48891 23.0683 5.71119L24.9966 3.78292ZM26.2157 5.00207L24.9966 3.78292L23.0683 5.71119L24.2875 6.93034L26.2157 5.00207ZM27.2358 6.29213C27.1179 6.02769 26.9586 5.78371 26.7639 5.56937C26.5873 5.37444 26.4045 5.18525 26.2157 5.00207L24.2875 6.9317C24.5098 7.15398 24.6284 7.27535 24.7102 7.36808C24.7825 7.4499 24.7607 7.44036 24.7334 7.37763L27.2358 6.29213ZM27.3312 8.20676C27.5322 7.57802 27.4982 6.89776 27.2358 6.29213L24.7334 7.37763L27.3312 8.20676ZM26.4448 9.59227C26.6142 9.39074 26.777 9.1838 26.933 8.97179C27.0776 8.76996 27.2331 8.51904 27.3312 8.20676L24.7334 7.37763C24.7539 7.31354 24.7743 7.2999 24.7116 7.3899C24.6407 7.48945 24.5343 7.62173 24.3338 7.86583L26.4448 9.59227ZM25.6198 10.6C25.6021 10.7405 25.5475 10.7569 25.7016 10.5346C25.8475 10.3232 26.0739 10.045 26.4448 9.59227L24.3338 7.86583C23.9929 8.28312 23.6834 8.65814 23.4611 8.97861C23.247 9.28681 22.9879 9.71228 22.917 10.2359L25.6198 10.6ZM25.6198 10.6L22.917 10.2359C22.8529 10.7132 22.9163 11.1989 23.1007 11.6436C23.2851 12.0884 23.584 12.4765 23.967 12.7683L25.6198 10.6ZM26.9153 10.7296C26.5166 10.6962 26.119 10.6494 25.7234 10.5891C25.4575 10.5414 25.508 10.5141 25.6198 10.6L23.967 12.7683C24.387 13.0888 24.8698 13.2061 25.2407 13.2729C25.6239 13.3411 26.1066 13.3888 26.6439 13.4434L26.9153 10.7296ZM28.5231 11.0814C28.2641 10.9519 27.986 10.8644 27.6994 10.8223C27.4391 10.783 27.1776 10.7521 26.9153 10.7296L26.6439 13.4434C26.8458 13.4611 27.0473 13.4838 27.2481 13.5115C27.3572 13.5306 27.334 13.5374 27.2726 13.5061L28.5231 11.0814ZM29.8091 12.5038C29.5667 11.8896 29.1098 11.3843 28.5231 11.0814L27.274 13.5088L29.8091 12.5038ZM30 14.1375C30 13.8593 30 13.5824 29.985 13.3479C29.9712 13.0584 29.9114 12.773 29.8077 12.5024L27.274 13.5088C27.2494 13.4447 27.2576 13.4229 27.2658 13.532C27.274 13.6547 27.274 13.8252 27.274 14.1402L30 14.1375ZM30 15.8612V14.1375H27.2726V15.8612H30ZM29.8091 17.4949C29.9291 17.1908 29.9686 16.899 29.985 16.6494C30 16.4162 30 16.1394 30 15.8612H27.2726C27.2726 16.1762 27.2726 16.3467 27.2644 16.4694C27.2562 16.5785 27.2481 16.5567 27.2726 16.4926L29.8091 17.4949ZM28.5231 18.9172C29.1098 18.6144 29.5667 18.109 29.8091 17.4949L27.274 16.4939L28.5231 18.9172ZM26.9153 19.2691C27.1935 19.2418 27.4676 19.2145 27.6994 19.1763C27.9449 19.1354 28.2313 19.0672 28.5231 18.9172L27.274 16.4939C27.334 16.4626 27.3572 16.4694 27.2494 16.4871C27.0487 16.5159 26.8473 16.5391 26.6453 16.5567L26.9153 19.2691ZM25.6212 19.3986C25.508 19.4845 25.4575 19.4573 25.7234 19.4095C25.9771 19.3645 26.333 19.3277 26.9153 19.2691L26.6439 16.5553C26.108 16.6099 25.6239 16.6562 25.2407 16.7258C24.8711 16.7926 24.387 16.9099 23.967 17.2303L25.6212 19.3986ZM25.6212 19.3986L23.967 17.2303C23.584 17.5222 23.2851 17.9102 23.1007 18.355C22.9163 18.7998 22.8529 19.2855 22.917 19.7627L25.6212 19.3986ZM26.4448 20.405C26.1866 20.0998 25.9387 19.786 25.7016 19.4641C25.5475 19.2418 25.6034 19.2582 25.6212 19.3986L22.917 19.7627C22.9879 20.2864 23.247 20.7119 23.4624 21.0201C23.6847 21.3405 23.9929 21.7155 24.3338 22.1328L26.4448 20.405ZM27.3312 21.7905C27.2398 21.5165 27.1054 21.2587 26.933 21.0269C26.7967 20.8346 26.6208 20.6219 26.4448 20.405L24.3338 22.1328C24.5329 22.3769 24.6407 22.5078 24.7116 22.6088C24.7757 22.6974 24.7552 22.6865 24.7334 22.6224L27.3312 21.7905ZM27.2358 23.7065C27.4986 23.1005 27.5325 22.4197 27.3312 21.7905L24.7334 22.6224L27.2358 23.7065ZM26.2157 24.9966C26.4135 24.7989 26.6085 24.6052 26.7639 24.4279C26.9276 24.2397 27.1049 24.0065 27.2358 23.7052L24.7334 22.621C24.7607 22.5583 24.7825 22.5501 24.7102 22.6319C24.6284 22.7247 24.5098 22.8447 24.2875 23.0683L26.2157 24.9966ZM24.9966 26.2144L26.2157 24.9966L24.2875 23.0683L23.0683 24.2861L24.9966 26.2144ZM23.7065 27.2358C23.9711 27.1175 24.215 26.9577 24.4293 26.7626C24.6052 26.6085 24.8002 26.4121 24.9966 26.2144L23.0683 24.2861C22.9268 24.431 22.7813 24.572 22.6319 24.7089C22.5501 24.7825 22.5597 24.7607 22.6224 24.7334L23.7065 27.2358ZM21.7919 27.3312C22.4206 27.5322 23.1009 27.4982 23.7065 27.2358L22.6224 24.7334L21.7919 27.3312ZM20.4064 26.4448C20.6219 26.6208 20.8346 26.7967 21.0269 26.933C21.2287 27.0762 21.4796 27.2317 21.7919 27.3312L22.6224 24.7334C22.6865 24.7539 22.6988 24.7743 22.6088 24.7116C22.4466 24.5901 22.2879 24.4641 22.1328 24.3338L20.4064 26.4448ZM19.4 25.6212C19.2595 25.6007 19.2418 25.5462 19.4641 25.7003C19.6754 25.8475 19.9523 26.0726 20.405 26.4435L22.1328 24.3338C21.7155 23.9916 21.3405 23.6834 21.0201 23.4611C20.7119 23.2456 20.2864 22.9879 19.7627 22.917L19.4 25.6212ZM19.4 25.6212L19.7627 22.917C19.2855 22.8529 18.7998 22.9163 18.355 23.1007C17.9102 23.2851 17.5222 23.584 17.2303 23.967L19.4 25.6212ZM19.2691 26.9153C19.3277 26.333 19.3645 25.9757 19.4095 25.7234C19.4573 25.4575 19.4845 25.5066 19.3986 25.6198L17.2303 23.9656C16.9099 24.3857 16.7926 24.8698 16.7258 25.2393C16.6576 25.6239 16.6112 26.1066 16.5567 26.6439L19.2691 26.9153ZM18.9159 28.5231C19.0659 28.2313 19.1341 27.9449 19.175 27.6994C19.2159 27.4676 19.2404 27.1935 19.2691 26.9153L16.5567 26.6439C16.5387 26.8464 16.515 27.0469 16.4858 27.2481C16.468 27.3572 16.4612 27.334 16.4926 27.2726L18.9159 28.5231ZM17.4963 29.8091C18.1094 29.5662 18.6137 29.1093 18.9159 28.5231L16.4939 27.274L17.4963 29.8091ZM15.8598 30C16.1394 30 16.4162 30 16.6508 29.985C16.899 29.9686 17.1908 29.9318 17.4963 29.8091L16.4939 27.274C16.558 27.2494 16.5799 27.2576 16.4708 27.2658C16.2681 27.2742 16.0653 27.2769 15.8626 27.274L15.8598 30ZM14.1375 30H15.8598L15.8612 27.2726H14.1375V30ZM12.5038 29.8091C12.8079 29.9291 13.0997 29.9686 13.3493 29.985C13.5824 30 13.8593 30 14.1375 30V27.2726C13.8225 27.2726 13.652 27.2726 13.5293 27.2644C13.4202 27.2562 13.442 27.2481 13.5061 27.2726L12.5038 29.8091ZM11.0814 28.5231C11.3843 29.1098 11.8896 29.5667 12.5038 29.8091L13.5061 27.2726L11.0814 28.5231ZM10.7296 26.9153C10.7569 27.1935 10.7841 27.4676 10.8223 27.6994C10.8632 27.9449 10.9314 28.2313 11.0814 28.5231L13.5088 27.274C13.5402 27.334 13.5334 27.3572 13.5156 27.2494C13.4868 27.0487 13.4636 26.8473 13.4461 26.6453L10.7296 26.9153ZM10.6 25.6198C10.5141 25.508 10.5414 25.4562 10.5891 25.7234C10.6341 25.9757 10.671 26.333 10.7296 26.9153L13.4434 26.6439C13.3888 26.1066 13.3424 25.6239 13.2729 25.2393C13.2061 24.8711 13.0888 24.387 12.7683 23.967L10.6 25.6198ZM10.6 25.6198L12.7683 23.967C12.4765 23.584 12.0884 23.2851 11.6436 23.1007C11.1989 22.9163 10.7132 22.8529 10.2359 22.917L10.6 25.6198ZM9.59227 26.4448C10.0464 26.0739 10.3232 25.8475 10.5346 25.7016C10.7569 25.5475 10.7405 25.6021 10.6 25.6198L10.2359 22.917C9.71228 22.9879 9.28681 23.247 8.97861 23.4624C8.65814 23.6834 8.28312 23.9916 7.86583 24.3338L9.59227 26.4448ZM8.20676 27.3312C8.48127 27.2399 8.73951 27.1055 8.97179 26.933C9.16271 26.7967 9.37681 26.6208 9.59227 26.4448L7.8672 24.3352C7.71164 24.4655 7.55385 24.5915 7.39127 24.7129C7.30263 24.777 7.3149 24.7566 7.37899 24.7348L8.20676 27.3312ZM6.29213 27.2358C6.89776 27.4982 7.57802 27.5322 8.20676 27.3312L7.37627 24.7334L6.29213 27.2358ZM5.0007 26.2157C5.19844 26.4135 5.39345 26.6085 5.57073 26.7639C5.75756 26.9276 5.99075 27.1062 6.29349 27.2372L7.37627 24.7334C7.439 24.7607 7.44854 24.7825 7.36672 24.7102C7.21736 24.5734 7.07184 24.4324 6.93034 24.2875L5.0007 26.2157ZM3.78292 24.9966L5.00207 26.2157L6.93034 24.2875L5.71119 23.0683L3.78292 24.9966ZM2.76288 23.7065C2.89243 24.0066 3.07107 24.2411 3.23472 24.4293C3.39018 24.6052 3.58519 24.8002 3.78292 24.9966L5.71119 23.0683C5.56625 22.9268 5.42528 22.7813 5.28844 22.6319C5.21617 22.5501 5.23799 22.5597 5.26526 22.6224L2.76288 23.7065ZM2.66742 21.7919C2.46651 22.4206 2.50043 23.1009 2.76288 23.7065L5.26526 22.6224L2.66742 21.7919ZM3.55382 20.4064C3.38448 20.6079 3.22166 20.8149 3.06562 21.0269C2.89315 21.2592 2.75874 21.5174 2.66742 21.7919L5.26526 22.6224C5.24344 22.6865 5.22435 22.6988 5.28708 22.6088C5.35799 22.5092 5.46436 22.3769 5.66483 22.1328L3.55382 20.4064ZM4.3775 19.3986C4.39659 19.2582 4.45114 19.2418 4.29704 19.4641C4.15112 19.6754 3.92475 19.9536 3.55382 20.4064L5.66483 22.1328C6.00575 21.7155 6.31531 21.3405 6.53759 21.0201C6.75169 20.7119 7.01079 20.2864 7.08171 19.7627L4.3775 19.3986ZM4.3775 19.3986L7.08171 19.7627C7.1458 19.2855 7.08241 18.7998 6.89798 18.355C6.71355 17.9102 6.41465 17.5222 6.03166 17.2303L4.3775 19.3986ZM3.08198 19.2691C3.66565 19.3277 4.02293 19.3645 4.27522 19.4095C4.54114 19.4573 4.49068 19.4845 4.3775 19.3986L6.03166 17.2303C5.61164 16.9099 5.12889 16.7926 4.75797 16.7258C4.37477 16.6576 3.89202 16.6099 3.35336 16.5553L3.08198 19.2691ZM1.47555 18.9172C1.76738 19.0672 2.05376 19.1354 2.29922 19.1763C2.53105 19.2145 2.80515 19.2432 3.08335 19.2704L3.35336 16.5553C3.15139 16.5382 2.9513 16.5155 2.7506 16.4871C2.64151 16.468 2.66469 16.4612 2.72606 16.4926L1.47555 18.9172ZM0.190945 17.4963C0.433316 18.1104 0.890231 18.6158 1.47691 18.9186L2.72742 16.4939L0.190945 17.4963ZM2.78278e-05 15.8626C2.78278e-05 16.1407 2.78787e-05 16.4176 0.0150285 16.6521C0.0313929 16.9003 0.0695764 17.1922 0.192309 17.4976L2.72742 16.4926C2.75197 16.5567 2.74379 16.5785 2.73697 16.4694C2.72816 16.2672 2.72498 16.0649 2.72742 15.8626H2.78278e-05ZM2.78278e-05 14.1388V15.8626H2.72742V14.1388H2.78278e-05ZM0.190945 12.5038C0.0877761 12.7745 0.0283929 13.0599 0.0150285 13.3493C-0.00133582 13.5838 2.78278e-05 13.8606 2.78278e-05 14.1402H2.72742C2.72742 13.8238 2.72742 13.6534 2.73697 13.5306C2.74379 13.4215 2.75197 13.4434 2.72742 13.5074L0.190945 12.5038ZM1.47691 11.0842C0.890723 11.3863 0.433872 11.8907 0.190945 12.5038L2.72742 13.5074L1.47691 11.0842ZM3.08471 10.7296C2.80652 10.7582 2.53241 10.7841 2.30058 10.8251C2.05512 10.866 1.76874 10.9342 1.47691 11.0842L2.72742 13.5074C2.66606 13.5388 2.64424 13.532 2.75197 13.5143C2.95266 13.4855 3.15411 13.4623 3.35609 13.4447L3.08471 10.7296ZM4.38022 10.6014C4.49341 10.5155 4.54387 10.5428 4.27658 10.5905C4.0243 10.6355 3.66701 10.6723 3.08471 10.731L3.35609 13.4447C3.89202 13.3902 4.37613 13.3438 4.76069 13.2743C5.13026 13.2074 5.61437 13.0902 6.03439 12.7697L4.38022 10.6014ZM4.38022 10.6014L6.03439 12.7697C6.41713 12.4777 6.71576 12.0896 6.89995 11.6448C7.08414 11.2 7.14732 10.7144 7.08307 10.2373L4.38022 10.6014ZM3.55519 9.59364C3.92611 10.0464 4.15249 10.3246 4.29976 10.536C4.45386 10.7582 4.39931 10.7419 4.38022 10.6014L7.08307 10.2373C7.01216 9.71364 6.75442 9.28953 6.53896 8.97997C6.31667 8.6595 6.00711 8.28449 5.66619 7.8672L3.55519 9.59364ZM2.66878 8.20676C2.76833 8.52041 2.92243 8.76996 3.06698 8.97315C3.20335 9.16407 3.37927 9.37817 3.55519 9.59364L5.66619 7.8672C5.53586 7.71164 5.4099 7.55385 5.28844 7.39127C5.22435 7.30263 5.24617 7.31354 5.26663 7.37763L2.66878 8.20676ZM2.76424 6.29349C2.50213 6.89872 2.46822 7.57844 2.66878 8.20676L5.26663 7.37763L2.76424 6.29349ZM3.78429 5.00207C3.58655 5.19981 3.39154 5.39345 3.23608 5.57073C3.04143 5.78508 2.88216 6.02905 2.76424 6.29349L5.26663 7.37763C5.23935 7.44036 5.21753 7.4499 5.28981 7.36672C5.37163 7.27399 5.49027 7.15398 5.71255 6.93034L3.78429 5.00207ZM5.00343 3.78429L3.78429 5.00207L5.71255 6.93034L6.93306 5.71255L5.00343 3.78429ZM6.29349 2.76288C6.02896 2.88121 5.78498 3.04095 5.57073 3.23608C5.37581 3.41269 5.18661 3.59552 5.00343 3.78429L6.93306 5.71255C7.15535 5.48891 7.27535 5.37027 7.36808 5.28981C7.4499 5.21617 7.44036 5.23799 7.37763 5.26526L6.29349 2.76288ZM8.20812 2.66742C7.57939 2.46651 6.89912 2.50043 6.29349 2.76288L7.37763 5.26526L8.20812 2.66742ZM9.59227 3.55382C9.37681 3.37791 9.16544 3.20335 8.97315 3.06698C8.74097 2.89403 8.48272 2.75916 8.20812 2.66742L7.37763 5.26526C7.31354 5.24481 7.30126 5.22435 7.39127 5.28708C7.49082 5.35936 7.62309 5.46573 7.8672 5.66619L9.59227 3.55382ZM10.6014 4.37886C10.7419 4.39795 10.7582 4.4525 10.536 4.2984C10.214 4.06134 9.90018 3.81346 9.595 3.55519L7.8672 5.66619C8.28449 6.00711 8.65814 6.31531 8.97861 6.53896C9.28681 6.75306 9.71228 7.01079 10.2359 7.08171L10.6014 4.37886ZM10.6014 4.37886L10.2373 7.08171C10.7145 7.1458 11.2002 7.08241 11.645 6.89798C12.0898 6.71355 12.4778 6.41465 12.7697 6.03166L10.6014 4.37886ZM10.731 3.08335C10.6723 3.66701 10.6355 4.0243 10.5905 4.27658C10.5428 4.5425 10.5155 4.49205 10.6014 4.37886L12.7697 6.03166C13.0902 5.61164 13.2074 5.12889 13.2743 4.75933C13.3424 4.37613 13.3915 3.89202 13.4447 3.35472L10.731 3.08335ZM11.0828 1.47691C10.9532 1.73597 10.8658 2.01401 10.8237 2.30058C10.7855 2.53241 10.7582 2.80652 10.731 3.08471L13.4447 3.35472C13.4625 3.15282 13.4852 2.95275 13.5129 2.75197C13.532 2.64287 13.5388 2.66742 13.5074 2.72742L11.0828 1.47691ZM12.5051 0.190945C11.891 0.433316 11.3856 0.890231 11.0828 1.47691L13.5074 2.72742L12.5051 0.190945ZM14.1388 2.78278e-05C13.8606 2.78278e-05 13.5838 2.78787e-05 13.3493 0.0150285C13.0599 0.0283929 12.7745 0.0877761 12.5038 0.190945L13.5088 2.72742C13.4447 2.75197 13.4229 2.74379 13.532 2.73697C13.6547 2.72879 13.8252 2.72742 14.1402 2.72742L14.1388 2.78278e-05ZM15.8626 2.78278e-05H14.1388V2.72742H15.8626V2.78278e-05ZM17.4963 0.190945C17.2256 0.0877761 16.9402 0.0283929 16.6508 0.0150285C16.4189 -0.00133582 16.1421 2.78278e-05 15.8639 2.78278e-05V2.72742C16.1789 2.72742 16.3494 2.72742 16.4721 2.73697C16.5812 2.74379 16.558 2.75197 16.4939 2.72742L17.4963 0.190945ZM18.9186 1.47691C18.6158 0.890231 18.1104 0.433316 17.4963 0.190945L16.4939 2.72742L18.9186 1.47691ZM19.0918 15.0007C19.0918 16.0857 18.6608 17.1263 17.8935 17.8935C17.1263 18.6608 16.0857 19.0918 15.0007 19.0918V21.8192C16.8091 21.8192 18.5434 21.1008 19.8221 19.8221C21.1008 18.5434 21.8192 16.8091 21.8192 15.0007H19.0918ZM15.0007 10.9096C16.0857 10.9096 17.1263 11.3406 17.8935 12.1079C18.6608 12.8751 19.0918 13.9157 19.0918 15.0007H21.8192C21.8192 13.1923 21.1008 11.458 19.8221 10.1793C18.5434 8.90058 16.8091 8.18221 15.0007 8.18221V10.9096ZM10.9096 15.0007C10.9096 13.9157 11.3406 12.8751 12.1079 12.1079C12.8751 11.3406 13.9157 10.9096 15.0007 10.9096V8.18221C13.1923 8.18221 11.458 8.90058 10.1793 10.1793C8.90058 11.458 8.18221 13.1923 8.18221 15.0007H10.9096ZM15.0007 19.0918C13.9157 19.0918 12.8751 18.6608 12.1079 17.8935C11.3406 17.1263 10.9096 16.0857 10.9096 15.0007H8.18221C8.18221 16.8091 8.90058 18.5434 10.1793 19.8221C11.458 21.1008 13.1923 21.8192 15.0007 21.8192V19.0918Z" fill="white"/>
</svg>
