<svg width="30" height="30" viewBox="0 0 30 30" fill="none" xmlns="http://www.w3.org/2000/svg">
<path d="M5.62878 11.3388L4.56253 9.49256C4.50098 9.38586 4.41901 9.29233 4.3213 9.21731C4.2236 9.14229 4.11208 9.08725 3.9931 9.05533C3.87413 9.02341 3.75003 9.01523 3.62789 9.03127C3.50576 9.04731 3.38798 9.08725 3.28128 9.14881C3.17458 9.21036 3.08105 9.29233 3.00603 9.39004C2.93101 9.48774 2.87597 9.59926 2.84405 9.71824C2.81213 9.83721 2.80396 9.96131 2.82 10.0834C2.83604 10.2056 2.87598 10.3234 2.93753 10.4301L5.12503 14.2176C5.18654 14.3243 5.26849 14.4179 5.36618 14.4929C5.46388 14.568 5.57542 14.6231 5.69441 14.655C5.8134 14.6869 5.93752 14.6951 6.05967 14.679C6.18182 14.6629 6.2996 14.6229 6.40628 14.5613L10.195 12.3751C10.3025 12.3139 10.3968 12.2322 10.4726 12.1345C10.5483 12.0368 10.604 11.925 10.6364 11.8057C10.6688 11.6864 10.6773 11.5618 10.6613 11.4392C10.6454 11.3166 10.6054 11.1984 10.5436 11.0913C10.4817 10.9842 10.3994 10.8905 10.3011 10.8154C10.2029 10.7402 10.0908 10.6853 9.97129 10.6537C9.85176 10.6221 9.72716 10.6145 9.60467 10.6312C9.48217 10.648 9.36419 10.6888 9.25753 10.7513L7.46003 11.7888C8.15654 9.94971 9.43237 8.38708 11.095 7.33676C12.7576 6.28645 14.7167 5.80546 16.6767 5.96638C18.6367 6.12731 20.4911 6.92142 21.9601 8.22885C23.4291 9.53629 24.433 11.2861 24.8202 13.2142C25.2074 15.1423 24.9569 17.144 24.1066 18.9172C23.2562 20.6904 21.8521 22.1389 20.1062 23.044C18.3603 23.9492 16.3674 24.2618 14.4282 23.9348C12.489 23.6078 10.7088 22.6589 9.35628 21.2313C9.18522 21.0508 8.94945 20.9456 8.70085 20.9389C8.45225 20.9323 8.21117 21.0246 8.03066 21.1957C7.85014 21.3667 7.74498 21.6025 7.7383 21.8511C7.73162 22.0997 7.82397 22.3408 7.99503 22.5213C9.63421 24.2511 11.7935 25.3983 14.1445 25.7882C16.4955 26.1782 18.9095 25.7897 21.0194 24.6817C23.1293 23.5737 24.8196 21.8069 25.8332 19.6501C26.8468 17.4933 27.1282 15.0645 26.6346 12.733C26.1411 10.4016 24.8996 8.2951 23.0989 6.73402C21.2983 5.17295 19.0371 4.24269 16.6592 4.08473C14.2813 3.92677 11.9169 4.54977 9.92565 5.85895C7.93435 7.16814 6.42513 9.09188 5.62753 11.3376" fill="black"/>
<path d="M15.9375 9.0625C16.1861 9.0625 16.4246 9.16127 16.6004 9.33709C16.7762 9.5129 16.875 9.75136 16.875 10V14.6125L19.1 16.8375C19.1921 16.9233 19.266 17.0268 19.3172 17.1418C19.3685 17.2568 19.396 17.381 19.3982 17.5068C19.4005 17.6327 19.3773 17.7578 19.3302 17.8745C19.283 17.9912 19.2128 18.0973 19.1238 18.1863C19.0348 18.2753 18.9287 18.3455 18.812 18.3927C18.6953 18.4398 18.5702 18.463 18.4443 18.4607C18.3185 18.4585 18.1943 18.431 18.0793 18.3797C17.9643 18.3285 17.8608 18.2546 17.775 18.1625L15.275 15.6625C15.0991 15.4869 15.0002 15.2486 15 15V10C15 9.75136 15.0988 9.5129 15.2746 9.33709C15.4504 9.16127 15.6889 9.0625 15.9375 9.0625Z" fill="black"/>
</svg>
