<svg width="40" height="40" viewBox="0 0 40 40" fill="none" xmlns="http://www.w3.org/2000/svg">
<path fill-rule="evenodd" clip-rule="evenodd" d="M21.2478 3.9197C21.1873 4.10667 21.1373 4.29345 21.0981 4.47942L20.8665 5.45792L16.772 9.47021L16.5289 9.70913C14.1936 12.0604 13.0932 14.9185 13.5198 17.4431C13.5304 17.5125 13.5444 17.5849 13.567 17.7038L13.5692 17.7132L13.6138 17.9498C13.9845 20.0039 13.4872 22.2869 12.1926 24.4749L11.2479 26.0999C10.6562 27.1195 10.1797 27.9414 9.84774 28.6114C9.50877 29.2936 9.26979 29.9195 9.23086 30.525C9.18052 31.3246 9.37173 32.0688 9.78853 32.6955C10.2053 33.3222 10.8356 33.8132 11.6267 34.1275C12.228 34.364 12.9363 34.4395 13.7416 34.457C14.5299 34.4737 15.53 34.4361 16.7666 34.3893L18.2339 34.3344C19.4705 34.2875 20.47 34.2488 21.2822 34.1707C22.1087 34.0918 22.8746 33.9626 23.6179 33.6683C24.5925 33.2807 25.4943 32.7163 26.2375 32.0291C26.9806 31.3419 27.5401 30.5547 27.8627 29.7427C28.1136 29.1246 28.1663 28.5081 28.1471 27.8437C28.1284 27.1895 28.0342 26.3923 27.9155 25.3981L27.7304 23.8155L27.7023 23.574C27.4772 21.481 28.1214 19.195 29.5432 17.042L29.5508 17.031L29.7234 16.7614C31.3733 14.1361 31.598 11.3221 30.3591 9.13798L30.2264 8.91482L27.956 5.12319L28.2099 4.04622C28.2524 3.87259 28.2962 3.68342 28.3187 3.52081C28.3454 3.33531 28.3573 3.09424 28.2653 2.85027C28.1421 2.5253 27.883 2.26874 27.5235 2.11567C27.2937 2.024 27.0319 1.97427 26.7516 1.96905C26.5444 1.9647 26.3345 1.96829 26.1223 1.9798L24.4454 2.0432C24.2229 2.0491 23.9984 2.06208 23.7724 2.08212C23.4667 2.11072 23.1542 2.18848 22.8529 2.31093C22.3794 2.5112 21.9582 2.81752 21.6525 3.18399C21.464 3.41815 21.3259 3.66845 21.2461 3.92052M22.528 6.78908L25.5569 6.67481L27.7107 10.2743C27.7549 10.3487 27.7835 10.3933 27.8025 10.4305L26.1811 11.7222C25.706 12.1015 25.1505 12.4008 24.5656 12.5927C23.9807 12.7847 23.3851 12.863 22.8332 12.8206C21.7164 12.7351 20.5013 12.9293 19.3323 13.3799C18.1633 13.8306 17.0893 14.5189 16.2378 15.3633L16.1512 15.449C16.2353 13.7871 17.1389 12.0357 18.6679 10.571L22.528 6.78908Z" fill="black"/>
</svg>
